# xmcd CD database file
#
# Track frame offsets:
#	150
#	23761
#	40323
#
# Disc length: 852 seconds
#
# Revision: 1
# Processed by: cddbd v1.5.2PL0 Copyright (c) Steve Scherf et al.
# Submitted via: CDex 1.70beta1
#
DISCID=1b035203
DTITLE=後藤真希 - シークレット
DYEAR=2002
DGENRE=JPop
TTITLE0=シークレット
TTITLE1=インナーチャイルド
TTITLE2=シークレット(Instrumental)
EXTD=YEAR: 2002
EXTT0=
EXTT1=
EXTT2=
PLAYORDER=
